# xmcd
#
# Track frame offsets: 
#        150
#        2272
#        16950
#        41217
#        59780
#        71452
#        86210
#        101610
#        125700
#
# Disc length: 1924 seconds
#
# Revision: 2
# Processed by: cddbd v1.5.2PL0 Copyright (c) Steve Scherf et al.
# Submitted via: ExactAudioCopyFreeDBPlugin 1.0
#
DISCID=78078209
DTITLE=James Brown And Friends - James Brown And Friends - Soul Sessio
DTITLE=n Live
DYEAR=1987
DGENRE=Soul
TTITLE0=Show Intro
TTITLE1=Papa`s Got Brand New Bag
TTITLE2=How Do You Stop
TTITLE3=Cold Sweat 
TTITLE4=Out Of Sight
TTITLE5=I`ll Go Crazy
TTITLE6=I Feel Good
TTITLE7=Try Me
TTITLE8=Living In America
EXTD=
EXTT0=
EXTT1=
EXTT2=
EXTT3=
EXTT4=
EXTT5=
EXTT6=
EXTT7=
EXTT8=
PLAYORDER=
